<?xml version="1.0" encoding="UTF-8"?>
<svg width="276px" height="56px" viewBox="0 0 276 56" version="1.1" xmlns="http://www.w3.org/2000/svg" xmlns:xlink="http://www.w3.org/1999/xlink">
    <!-- Generator: Sketch 52.6 (67491) - http://www.bohemiancoding.com/sketch -->
    <title>logos/catolica de brasilia</title>
    <desc>Created with Sketch.</desc>
    <defs>
        <polygon id="path-1" points="0.250238799 0.3346 9.71140852 0.3346 9.71140852 55.299869 0.250238799 55.299869"></polygon>
        <polygon id="path-3" points="0 55.3 275.276687 55.3 275.276687 0.3346 0 0.3346"></polygon>
    </defs>
    <g id="Symbols" stroke="none" stroke-width="1" fill="none" fill-rule="evenodd">
        <g id="logos/catolica-de-brasilia">
            <g>
                <polygon id="Fill-1" fill="#28348A" points="51.5500331 55.66533 275.276687 55.66533 275.276687 0.70063 51.5500331 0.70063"></polygon>
                <polygon id="Fill-2" fill="#008BD1" points="0 55.66533 50.6514706 55.66533 50.6514706 0.70063 0 0.70063"></polygon>
                <g id="Group-55" transform="translate(0.000000, 0.365330)">
                    <g id="Group-5" transform="translate(46.223792, 0.000000)">
                        <mask id="mask-2" fill="white">
                            <use xlink:href="#path-1"></use>
                        </mask>
                        <g id="Clip-4"></g>
                        <path d="M5.49453807,14.79093 C6.44142544,28.06993 6.45193085,41.37833 5.27532524,54.65593 C5.27532524,54.65593 5.11284161,55.64363 4.82079129,55.17253 L4.69052424,54.65593 C3.51601972,41.37833 3.51882116,28.06993 4.46010564,14.79093 L4.46010564,14.42203 L4.46010564,4.83063 L0.250238799,4.83063 L0.250238799,3.72253 L4.46010564,3.72253 L4.46010564,0.33453 L5.49453807,0.33453 L5.49453807,3.72253 L9.71140852,3.72253 L9.71140852,4.83063 L5.49453807,4.83063 L5.49453807,14.43743 L5.49453807,14.79093 Z" id="Fill-3" fill="#FEFEFE" mask="url(#mask-2)"></path>
                    </g>
                    <path d="M14.6320712,47.43256 L14.7231181,46.92996 L33.5887283,33.31356 C41.4775888,27.64006 41.172932,22.20036 36.2949212,11.77666 L36.4419969,11.30976 L36.9196428,11.38816 C43.5331468,20.04996 44.6117019,28.17836 35.2079617,34.91586 C29.6001754,38.93456 21.8997119,43.56366 15.1223235,47.54246 L14.6320712,47.43256 Z" id="Fill-6" fill="#FEFEFE"></path>
                    <path d="M21.3436257,50.80271 L21.3660372,50.30711 L37.9764867,34.22461 C44.7608787,27.64951 44.4099981,23.28081 40.1847233,10.30281 L40.4004343,9.82681 L40.8549683,10.02281 C46.4571518,21.16751 47.8865875,29.37711 39.5291859,36.63051 C32.1228738,43.02291 27.4269568,46.65521 21.8541885,50.84891 L21.3436257,50.80271 Z" id="Fill-8" fill="#FEFEFE"></path>
                    <path d="M45.4718846,37.25316 L45.4662818,37.27976 L35.3082534,53.34966 L34.8018927,53.49736 L34.6394091,53.00666 L42.9036628,35.57526 L42.9141682,35.56196 C48.3335576,25.79416 47.0532986,18.77176 44.9108959,9.36376 L45.1756322,8.92766 L45.6266643,9.16076 C49.5304736,19.91066 51.1693171,29.07576 45.4718846,37.25316" id="Fill-10" fill="#FEFEFE"></path>
                    <path d="M87.2910392,47.54295 C80.5136508,43.56345 72.8096856,38.93505 67.2032999,34.91635 C57.7967583,28.17815 58.8809164,20.05045 65.4867164,11.38865 L65.9664633,11.30955 L66.1163405,11.77575 C61.2355283,22.19945 60.9308715,27.64055 68.8162301,33.31405 L87.6867429,46.93045 L87.7756887,47.43305 L87.2910392,47.54295 Z" id="Fill-12" fill="#FEFEFE"></path>
                    <path d="M80.552801,50.84884 C74.9856355,46.65514 70.284816,43.02284 62.8876086,36.63044 C54.5239038,29.37704 55.9512384,21.16744 61.5562234,10.02274 L62.0107573,9.82604 L62.2229665,10.30274 C57.9997928,23.28074 57.6468112,27.64944 64.429102,34.22454 L81.0430533,50.30704 L81.0703674,50.80264 L80.552801,50.84884 Z" id="Fill-14" fill="#FEFEFE"></path>
                    <path d="M56.9395871,37.25316 C51.2442557,29.07576 52.8802978,19.91066 56.782006,9.16076 L57.2344389,8.92766 L57.4991752,9.36376 C55.3574728,18.77176 54.0744124,25.79416 59.4931014,35.56196 L59.507809,35.57526 L67.7685609,53.00666 L67.6046765,53.49736 L67.1032184,53.34966 L56.9465907,37.27976 L56.9395871,37.25316 Z" id="Fill-16" fill="#FEFEFE"></path>
                    <mask id="mask-4" fill="white">
                        <use xlink:href="#path-3"></use>
                    </mask>
                    <g id="Clip-19"></g>
                    <polygon id="Fill-18" fill="#FEFEFE" mask="url(#mask-4)" points="120.153844 24.2004 122.707358 24.2004 122.707358 14.2037 120.153844 14.2037"></polygon>
                    <polygon id="Fill-20" fill="#FEFEFE" mask="url(#mask-4)" points="162.060614 24.2004 164.593817 24.2004 164.593817 14.2037 162.060614 14.2037"></polygon>
                    <path d="M163.319161,10.0352 C164.192511,10.0352 164.722684,10.6386 164.740193,11.424 C164.740193,12.1702 164.192511,12.7561 163.303753,12.7561 C162.476628,12.7561 161.91844,12.1702 161.91844,11.424 C161.91844,10.6386 162.492036,10.0352 163.319161,10.0352" id="Fill-21" fill="#FEFEFE" mask="url(#mask-4)"></path>
                    <path d="M155.89492,20.04163 C153.933911,19.35983 153.121493,18.26643 153.141803,17.11493 C153.141803,15.35303 154.606257,13.97543 156.916746,13.97543 C158.033821,13.97543 158.994716,14.27853 159.576015,14.57253 L159.082261,16.35333 C158.645236,16.10623 157.844724,15.77793 156.967872,15.77793 C156.061606,15.77793 155.56505,16.20633 155.56505,16.82163 C155.56505,17.47263 156.023086,17.77223 157.302645,18.22863 C159.124282,18.87123 159.95491,19.80013 159.985726,21.28133 C159.985726,23.09013 158.559792,24.42293 155.901924,24.42293 C154.704307,24.42293 153.620149,24.10723 152.887572,23.70473 L153.365218,21.87283 C153.933911,22.23333 155.044682,22.59453 155.935541,22.59453 C157.033706,22.59453 157.540067,22.14723 157.540067,21.49063 C157.540067,20.81373 157.124753,20.46583 155.89492,20.04163" id="Fill-22" fill="#FEFEFE" mask="url(#mask-4)"></path>
                    <path d="M148.312047,14.20342 L148.378581,16.10602 L148.465426,16.10602 C148.952177,14.69902 150.131584,13.97522 151.198233,13.97522 L151.790037,14.03612 L151.790037,16.41822 C151.586232,16.37622 151.360016,16.33842 151.051857,16.33842 C149.839533,16.33842 149.021512,17.11472 148.779188,18.25782 L148.708451,19.02852 L148.708451,24.20012 L146.187153,24.20012 L146.187153,17.42202 C146.187153,16.06402 146.166843,15.10152 146.106612,14.20342 L148.312047,14.20342 Z" id="Fill-23" fill="#FEFEFE" mask="url(#mask-4)"></path>
                    <path d="M127.02424,14.20342 L128.630167,19.28262 C128.935524,20.14292 129.14143,20.96822 129.320022,21.78862 L129.378852,21.78862 C129.56865,20.96822 129.794866,20.16812 130.063805,19.28262 L131.639616,14.20342 L134.312892,14.20342 L130.493126,24.20012 L128.000543,24.20012 L124.290033,14.20342 L127.02424,14.20342 Z" id="Fill-24" fill="#FEFEFE" mask="url(#mask-4)"></path>
                    <path d="M121.445239,10.0352 C122.298978,10.0352 122.834754,10.6386 122.855765,11.424 C122.855765,12.1702 122.298978,12.7561 121.416524,12.7561 C120.566286,12.7561 120.024207,12.1702 120.024207,11.424 C120.024207,10.6386 120.583795,10.0352 121.445239,10.0352" id="Fill-25" fill="#FEFEFE" mask="url(#mask-4)"></path>
                    <path d="M110.553443,14.20342 L110.667601,15.69862 L110.741139,15.69862 C111.169059,14.92162 112.253918,13.97522 113.912371,13.97522 C115.656969,13.97522 117.466701,15.10152 117.466701,18.26412 L117.466701,24.20012 L114.947504,24.20012 L114.947504,18.55042 C114.947504,17.11472 114.412429,16.02692 113.038321,16.02692 C112.0242,16.02692 111.335745,16.74792 111.071009,17.51092 L110.965254,18.32922 L110.965254,24.20012 L108.414542,24.20012 L108.414542,17.18402 C108.414542,16.02692 108.399834,15.07492 108.346607,14.20342 L110.553443,14.20342 Z" id="Fill-26" fill="#FEFEFE" mask="url(#mask-4)"></path>
                    <path d="M94.8226458,10.36301 L97.3467449,10.36301 L97.3467449,18.43401 C97.3467449,21.15491 98.465921,22.39671 100.183905,22.39671 C102.006243,22.39671 103.096704,21.15491 103.096704,18.43401 L103.096704,10.36301 L105.611699,10.36301 L105.611699,18.26391 C105.611699,22.53461 103.435679,24.42251 100.090057,24.42251 C96.8859077,24.42251 94.8226458,22.66271 94.8226458,18.26671 L94.8226458,10.36301 Z" id="Fill-27" fill="#FEFEFE" mask="url(#mask-4)"></path>
                    <path d="M198.893902,21.38766 L198.893902,9.62626 L196.378907,9.62626 L196.378907,15.29346 L196.332684,15.29346 C195.875348,14.55076 194.895544,13.97466 193.513733,13.97466 C191.122702,13.97466 189.018119,15.96266 189.034927,19.30656 C189.034927,22.39566 190.928002,24.42286 193.308527,24.42286 C194.779984,24.42286 195.966395,23.71936 196.585514,22.61616 L196.619131,22.61616 L196.71438,24.20026 L198.975144,24.20026 C198.947129,23.51846 198.893902,22.41666 198.893902,21.38766 Z M196.378907,19.87426 L196.282258,20.60506 C196.043435,21.70406 195.138569,22.39566 194.109739,22.39566 C192.503813,22.39566 191.606651,21.05586 191.606651,19.22396 C191.606651,17.36266 192.503813,15.92906 194.122346,15.92906 C195.273739,15.92906 196.078453,16.72706 196.307471,17.71896 L196.378907,18.37766 L196.378907,19.87426 Z" id="Fill-28" fill="#FEFEFE" mask="url(#mask-4)"></path>
                    <path d="M210.175589,18.83 C210.175589,16.6383 209.127849,13.9748 205.855065,13.9748 C202.665623,13.9748 200.963047,16.5942 200.963047,19.3599 C200.963047,22.4168 202.879233,24.423 206.125404,24.423 C207.563944,24.423 208.756658,24.1346 209.6146,23.7874 L209.24481,22.0458 C208.482117,22.3195 207.656392,22.5008 206.476985,22.5008 C204.871058,22.5008 203.460532,21.7175 203.380691,19.9101 L210.091545,19.9101 C210.127964,19.6959 210.175589,19.3053 210.175589,18.83 Z M203.384193,18.1405 C203.498352,17.115 204.15599,15.6982 205.722697,15.6982 C207.403562,15.6982 207.822377,17.2235 207.779655,18.1405 L203.384193,18.1405 Z" id="Fill-29" fill="#FEFEFE" mask="url(#mask-4)"></path>
                    <path d="M187.005563,21.80192 L187.005563,18.19342 C187.005563,16.01922 186.074784,13.97522 182.88044,13.97522 C181.303228,13.97522 180.009662,14.40292 179.271482,14.85722 L179.759633,16.50012 C180.436882,16.06402 181.458008,15.75322 182.452519,15.75322 C184.206922,15.75322 184.478662,16.85712 184.478662,17.51092 L184.478662,17.66562 C180.78286,17.65092 178.531201,18.91792 178.531201,21.45612 C178.531201,22.97652 179.677691,24.42342 181.686325,24.42342 C182.97849,24.42342 184.025529,23.86902 184.640446,23.09062 L184.70768,23.09062 L184.877868,24.20012 L187.147036,24.20012 C187.048985,23.58762 187.005563,22.69512 187.005563,21.80192 Z M184.5515,20.69242 L184.467456,21.24122 C184.235637,21.96222 183.50306,22.61672 182.483335,22.61672 C181.682823,22.61672 181.051798,22.15122 181.051798,21.18032 C181.051798,19.65502 182.763479,19.28262 184.5515,19.30572 L184.5515,20.69242 Z" id="Fill-30" fill="#FEFEFE" mask="url(#mask-4)"></path>
                    <path d="M144.152956,18.83 C144.152956,16.6383 143.101715,13.9748 139.838035,13.9748 C136.631085,13.9748 134.947418,16.5942 134.947418,19.3599 C134.947418,22.4168 136.853799,24.423 140.108375,24.423 C141.542713,24.423 142.734726,24.1346 143.603874,23.7874 L143.211672,22.0458 C142.467189,22.3195 141.621854,22.5008 140.457854,22.5008 C138.854029,22.5008 137.434398,21.7175 137.365063,19.9101 L144.067512,19.9101 C144.108834,19.6959 144.152956,19.3053 144.152956,18.83 Z M137.365063,18.1405 C137.470817,17.115 138.140362,15.6982 139.695162,15.6982 C141.376027,15.6982 141.786438,17.2235 141.76963,18.1405 L137.365063,18.1405 Z" id="Fill-31" fill="#FEFEFE" mask="url(#mask-4)"></path>
                    <path d="M176.52817,21.38766 L176.52817,9.62626 L174.000569,9.62626 L174.000569,15.29346 L173.959248,15.29346 C173.511718,14.55076 172.520707,13.97466 171.158506,13.97466 C168.75627,13.97466 166.645383,15.96266 166.6776,19.30656 C166.6776,22.39566 168.56157,24.42286 170.950499,24.42286 C172.399545,24.42286 173.621674,23.71936 174.212778,22.61616 L174.260403,22.61616 L174.345847,24.20026 L176.613614,24.20026 C176.572293,23.51846 176.52817,22.41666 176.52817,21.38766 Z M174.000569,19.87426 L173.922129,20.60506 C173.683306,21.70406 172.775639,22.39566 171.745408,22.39566 C170.140883,22.39566 169.24232,21.05586 169.24232,19.22396 C169.24232,17.36266 170.140883,15.92906 171.762917,15.92906 C172.916411,15.92906 173.723927,16.72706 173.945941,17.71896 L174.000569,18.37766 L174.000569,19.87426 Z" id="Fill-32" fill="#FEFEFE" mask="url(#mask-4)"></path>
                    <polygon id="Fill-33" fill="#FEFEFE" mask="url(#mask-4)" points="136.781802 45.6967 139.36123 45.6967 139.36123 30.9568 136.781802 30.9568"></polygon>
                    <polygon id="Fill-34" fill="#FEFEFE" mask="url(#mask-4)" points="142.122751 45.6967 144.700078 45.6967 144.700078 35.5852 142.122751 35.5852"></polygon>
                    <path d="M143.384871,34.12297 C142.529031,34.12297 141.974345,33.52237 141.974345,32.74747 C141.974345,31.95717 142.559846,31.35867 143.40238,31.35867 C144.277831,31.35867 144.826913,31.95717 144.844422,32.74747 C144.844422,33.52237 144.277831,34.12297 143.384871,34.12297" id="Fill-35" fill="#FEFEFE" mask="url(#mask-4)"></path>
                    <polygon id="Fill-36" fill="#FEFEFE" mask="url(#mask-4)" points="247.69439 45.6967 250.272417 45.6967 250.272417 35.5852 247.69439 35.5852"></polygon>
                    <path d="M248.975139,31.35888 C249.854091,31.35888 250.396871,31.95738 250.410178,32.74768 C250.410178,33.52258 249.854091,34.12318 248.95763,34.12318 C248.109493,34.12318 247.544303,33.52258 247.544303,32.74768 C247.544303,31.95738 248.134006,31.35888 248.975139,31.35888" id="Fill-37" fill="#FEFEFE" mask="url(#mask-4)"></path>
                    <polygon id="Fill-38" fill="#FEFEFE" mask="url(#mask-4)" points="242.359744 45.6967 244.930067 45.6967 244.930067 30.9568 242.359744 30.9568"></polygon>
                    <polygon id="Fill-39" fill="#FEFEFE" mask="url(#mask-4)" points="238.930079 31.1969 241.427564 31.1969 238.887357 34.2748 237.132253 34.2748"></polygon>
                    <polygon id="Fill-40" fill="#FEFEFE" mask="url(#mask-4)" points="237.040506 45.6897 239.608728 45.6897 239.608728 35.5775 237.040506 35.5775"></polygon>
                    <path d="M230.817733,41.47234 C228.833612,40.79264 228.01349,39.70344 228.042205,38.52534 C228.042205,36.74734 229.498254,35.35504 231.853566,35.35504 C232.96784,35.35504 233.954648,35.65114 234.538048,35.95564 L234.020482,37.75254 C233.598865,37.51244 232.788548,37.17574 231.894187,37.17574 C230.982318,37.17574 230.482961,37.61674 230.482961,38.23484 C230.482961,38.89004 230.956405,39.18124 232.252772,39.65724 C234.077911,40.31104 234.920445,41.24344 234.938654,42.74564 C234.938654,44.56004 233.49311,45.93274 230.852051,45.93274 C229.611012,45.93274 228.51845,45.60374 227.766263,45.17744 L228.26702,43.34834 C228.833612,43.70184 229.938781,44.06934 230.852051,44.06934 C231.981032,44.06934 232.474086,43.60174 232.474086,42.94444 C232.474086,42.26824 232.070678,41.90704 230.817733,41.47234" id="Fill-41" fill="#FEFEFE" mask="url(#mask-4)"></path>
                    <path d="M212.853277,37.51258 L212.934519,37.51258 C213.431775,36.07198 214.624488,35.35448 215.700943,35.35448 L216.306054,35.42308 L216.306054,37.81988 C216.093845,37.77928 215.867628,37.72888 215.548964,37.72888 C214.326135,37.72888 213.509515,38.52548 213.261587,39.66858 L213.196453,40.45118 L213.196453,45.69698 L210.624029,45.69698 L210.624029,38.83978 C210.624029,37.46568 210.615625,36.49478 210.54839,35.57638 L212.78184,35.57638 L212.853277,37.51258 Z" id="Fill-42" fill="#FEFEFE" mask="url(#mask-4)"></path>
                    <path d="M152.419101,35.35518 C153.356884,35.35518 154.317778,35.55048 154.882269,35.83748 L154.431237,37.72888 C154.020825,37.55528 153.425519,37.34388 152.512949,37.34388 C150.560344,37.34388 149.385139,38.76278 149.415255,40.62198 C149.415255,42.70168 150.762748,43.87558 152.512949,43.87558 C153.413613,43.87558 154.020825,43.70198 154.524385,43.49338 L154.86546,45.37428 C154.332486,45.61858 153.27284,45.93288 152.012892,45.93288 C148.855667,45.93288 146.795206,43.87558 146.795206,40.73958 C146.795206,37.72048 148.860569,35.35518 152.419101,35.35518" id="Fill-43" fill="#FEFEFE" mask="url(#mask-4)"></path>
                    <polygon id="Fill-44" fill="#FEFEFE" mask="url(#mask-4)" points="132.616128 31.1969 130.062614 34.2748 128.300507 34.2748 130.108137 31.1969"></polygon>
                    <path d="M123.286416,35.57701 L123.286416,37.49431 L120.839357,37.49431 L120.839357,41.94561 C120.839357,43.16851 121.181833,43.82091 122.14763,43.82091 C122.61407,43.82091 122.863399,43.77681 123.150546,43.70191 L123.182763,45.64301 C122.810871,45.79211 122.14763,45.93281 121.339414,45.93281 C120.411436,45.93281 119.617928,45.58631 119.143784,45.06271 C118.589099,44.47751 118.35938,43.56961 118.35938,42.23751 L118.35938,37.49431 L116.903331,37.49431 L116.903331,35.57701 L118.35938,35.57701 L118.35938,33.71851 L120.839357,32.97091 L120.839357,35.57701 L123.286416,35.57701 Z" id="Fill-45" fill="#FEFEFE" mask="url(#mask-4)"></path>
                    <path d="M102.326938,31.46654 C103.999399,31.46654 105.207521,31.82774 105.733492,32.10144 L105.177405,34.12304 C104.510662,33.83814 103.600194,33.58964 102.413783,33.58964 C99.5710198,33.58964 97.5203643,35.36344 97.5203643,38.73954 C97.5203643,41.82164 99.3314965,43.77604 102.403278,43.77604 C103.443313,43.77604 104.531673,43.56954 105.18721,43.25524 L105.605326,45.26844 C105.002315,45.58624 103.678634,45.93204 101.989365,45.93204 C97.5301694,45.93204 94.838684,43.11454 94.838684,38.84524 C94.838684,34.24484 98.0428332,31.46654 102.326938,31.46654" id="Fill-46" fill="#FEFEFE" mask="url(#mask-4)"></path>
                    <path d="M225.691585,43.2551 L225.691585,39.6004 C225.691585,37.4066 224.751701,35.3549 221.516036,35.3549 C219.922015,35.3549 218.600435,35.7882 217.861555,36.2341 L218.360211,37.9092 C219.03676,37.4661 220.0859,37.1581 221.090917,37.1581 C222.860027,37.1581 223.130367,38.2634 223.130367,38.9256 L223.130367,39.081 C219.386239,39.0593 217.137382,40.3599 217.137382,42.9156 C217.137382,44.4388 218.273367,45.9326 220.311416,45.9326 C221.612685,45.9326 222.680035,45.3635 223.306857,44.5606 L223.360085,44.5606 L223.536576,45.6967 L225.828155,45.6967 C225.733606,45.0632 225.691585,44.177 225.691585,43.2551 Z M223.194099,42.1337 L223.11706,42.7014 C222.875435,43.4336 222.142158,44.0811 221.115429,44.0811 C220.307914,44.0811 219.65938,43.6338 219.65938,42.6363 C219.65938,41.1012 221.38927,40.7141 223.194099,40.7393 L223.194099,42.1337 Z" id="Fill-47" fill="#FEFEFE" mask="url(#mask-4)"></path>
                    <path d="M164.609786,43.2551 L164.609786,39.6004 C164.609786,37.4066 163.667801,35.3549 160.444041,35.3549 C158.846519,35.3549 157.522838,35.7882 156.772752,36.2341 L157.284715,37.9092 C157.968267,37.4661 159.0034,37.1581 160.009118,37.1581 C161.790134,37.1581 162.05417,38.2634 162.05417,38.9256 L162.05417,39.081 C158.327552,39.0593 156.047879,40.3599 156.047879,42.9156 C156.047879,44.4388 157.192268,45.9326 159.226115,45.9326 C160.539991,45.9326 161.596835,45.3635 162.226459,44.5606 L162.285289,44.5606 L162.436567,45.6967 L164.750558,45.6967 C164.649006,45.0632 164.609786,44.177 164.609786,43.2551 Z M162.108798,42.1337 L162.033159,42.7014 C161.808344,43.4336 161.061059,44.0811 160.042735,44.0811 C159.226115,44.0811 158.591588,43.6338 158.591588,42.6363 C158.591588,41.1012 160.311673,40.7141 162.108798,40.7393 L162.108798,42.1337 Z" id="Fill-48" fill="#FEFEFE" mask="url(#mask-4)"></path>
                    <path d="M180.928045,42.85211 L180.928045,30.95561 L178.371729,30.95561 L178.371729,36.69001 L178.33531,36.69001 C177.870271,35.93471 176.886264,35.35511 175.486244,35.35511 C173.055993,35.35511 170.943706,37.37321 170.95281,40.73881 C170.95281,43.86711 172.864094,45.93211 175.276836,45.93211 C176.768604,45.93211 177.967621,45.21671 178.565028,44.08061 L178.613353,44.08061 L178.718407,45.69691 L181.01629,45.69691 C180.980572,45.00881 180.928045,43.87481 180.928045,42.85211 Z M178.371729,41.31701 L178.284184,42.05901 C178.032755,43.15101 177.128589,43.86711 176.091355,43.86711 C174.473523,43.86711 173.566556,42.50281 173.566556,40.65971 C173.566556,38.76201 174.473523,37.33261 176.109565,37.33261 C177.26586,37.33261 178.073375,38.13481 178.307296,39.13301 L178.371729,39.80011 L178.371729,41.31701 Z" id="Fill-49" fill="#FEFEFE" mask="url(#mask-4)"></path>
                    <path d="M115.334173,43.2551 L115.334173,39.6004 C115.334173,37.4066 114.410398,35.3549 111.161425,35.3549 C109.570206,35.3549 108.257031,35.7882 107.521652,36.2341 L108.0028,37.9092 C108.70316,37.4661 109.729889,37.1581 110.730003,37.1581 C112.522926,37.1581 112.799569,38.2634 112.799569,38.9256 L112.799569,39.081 C109.054041,39.0593 106.786274,40.3599 106.786274,42.9156 C106.786274,44.4388 107.92646,45.9326 109.970112,45.9326 C111.263678,45.9326 112.334529,45.3635 112.95785,44.5606 L113.020182,44.5606 L113.173561,45.6967 L115.491054,45.6967 C115.384599,45.0632 115.334173,44.177 115.334173,43.2551 Z M112.856998,42.1337 L112.774356,42.7014 C112.543237,43.4336 111.790349,44.0811 110.774126,44.0811 C109.970112,44.0811 109.325781,43.6338 109.325781,42.6363 C109.325781,41.1012 111.050768,40.7141 112.856998,40.7393 L112.856998,42.1337 Z" id="Fill-50" fill="#FEFEFE" mask="url(#mask-4)"></path>
                    <path d="M129.669712,35.35553 C126.632949,35.35553 124.442922,37.38693 124.442922,40.71473 C124.442922,43.93613 126.63575,45.93323 129.493221,45.93323 C132.062143,45.93323 134.6983,44.26023 134.6983,40.54883 C134.6983,37.46533 132.687565,35.35553 129.669712,35.35553 M129.584268,44.06913 C128.017561,44.06913 127.067172,42.59563 127.067172,40.63493 C127.067172,38.96963 127.80185,37.22523 129.612983,37.22523 C131.35618,37.22523 132.05654,39.04243 132.05654,40.60973 C132.05654,42.63553 131.034014,44.06913 129.584268,44.06913" id="Fill-51" fill="#FEFEFE" mask="url(#mask-4)"></path>
                    <path d="M192.308903,40.27772 C192.308903,38.05732 191.268167,35.35532 187.966668,35.35532 C184.7275,35.35532 183.029126,37.98802 183.029126,40.79222 C183.029126,43.87502 184.948814,45.93302 188.227202,45.93302 C189.686753,45.93302 190.887871,45.61802 191.771026,45.26942 L191.387928,43.51452 C190.624536,43.80082 189.763793,43.96322 188.581584,43.96322 C186.965152,43.96322 185.537117,43.16872 185.469182,41.34382 L192.232563,41.34382 C192.282289,41.12262 192.308903,40.73972 192.308903,40.27772 Z M185.469182,39.56022 C185.576337,38.52562 186.245181,37.09622 187.823794,37.09622 C189.515865,37.09622 189.948688,38.63132 189.918572,39.56022 L185.469182,39.56022 Z" id="Fill-52" fill="#FEFEFE" mask="url(#mask-4)"></path>
                    <path d="M260.864879,43.2551 L260.864879,39.6004 C260.864879,37.4066 259.928497,35.3549 256.699135,35.3549 C255.0785,35.3549 253.766025,35.7882 253.025043,36.2341 L253.515296,37.9092 C254.204451,37.4661 255.249388,37.1581 256.241799,37.1581 C258.028419,37.1581 258.30366,38.2634 258.30366,38.9256 L258.30366,39.081 C254.567237,39.0593 252.295968,40.3599 252.295968,42.9156 C252.295968,44.4388 253.443859,45.9326 255.478406,45.9326 C256.783178,45.9326 257.851928,45.3635 258.471047,44.5606 L258.524274,44.5606 L258.706368,45.6967 L260.993745,45.6967 C260.908301,45.0632 260.864879,44.177 260.864879,43.2551 Z M258.358989,42.1337 L258.276346,42.7014 C258.056433,43.4336 257.306347,44.0811 256.288723,44.0811 C255.478406,44.0811 254.841078,43.6338 254.841078,42.6363 C254.841078,41.1012 256.556261,40.7141 258.358989,40.7393 L258.358989,42.1337 Z" id="Fill-53" fill="#FEFEFE" mask="url(#mask-4)"></path>
                    <path d="M205.630109,38.18185 L205.630109,38.13565 C207.150592,37.57425 207.96371,36.39545 207.96371,35.10185 C207.96371,33.91325 207.375407,33.01445 206.509061,32.49925 C205.543264,31.82865 204.384168,31.60115 202.499498,31.60115 C201.074264,31.60115 199.590901,31.72505 198.770778,31.88115 L198.770778,45.64315 C199.417912,45.72295 200.504871,45.83355 201.913996,45.83355 C204.469612,45.83355 206.104253,45.39535 207.105769,44.53015 C207.909782,43.86655 208.460266,42.87955 208.460266,41.64685 C208.460266,39.70365 207.105769,38.55775 205.630109,38.18185 Z M201.303982,33.58915 C201.585527,33.52265 202.033058,33.48135 202.769136,33.48135 C204.384168,33.48135 205.389885,34.09175 205.389885,35.40355 C205.389885,36.58165 204.384168,37.40625 202.617859,37.40625 L201.303982,37.40625 L201.303982,33.58915 Z M202.665483,43.89525 C202.068776,43.89525 201.646459,43.89525 201.302582,43.84065 L201.302582,39.26895 L202.571635,39.26895 C204.344948,39.26895 205.758975,39.92415 205.758975,41.54395 C205.758975,43.28065 204.296623,43.89525 202.665483,43.89525 Z" id="Fill-54" fill="#FEFEFE" mask="url(#mask-4)"></path>
                </g>
                <polygon id="Fill-56" fill="#008BD1" points="0 55.66463 50.9246112 55.66463 50.9246112 0.70063 0 0.70063"></polygon>
                <polygon id="Fill-57" fill="#28348A" points="50.4357596 55.66463 91.8109556 55.66463 91.8109556 0.70063 50.4357596 0.70063"></polygon>
                <g id="Group-72" transform="translate(14.007210, 0.365330)" fill="#FEFEFE">
                    <path d="M36.865785,55.29972 C36.374132,55.29972 36.3797349,54.86222 36.3797349,54.86222 C35.5988329,45.99462 35.3403999,37.08642 35.5393023,28.18732 C35.711591,20.59932 36.1472152,13.02112 36.1591213,5.43032 C36.1591213,5.35892 36.100291,5.30082 36.0288543,5.30082 L32.0970305,5.30082 C32.0255938,5.30082 31.9674638,5.24342 31.9674638,5.17272 L31.9674638,3.93372 C31.9674638,3.86302 32.0255938,3.80422 32.0970305,3.80422 L36.0295546,3.80422 C36.1016918,3.80422 36.1591213,3.74752 36.1591213,3.67542 L36.1591213,0.46382 C36.1591213,0.39312 36.2172512,0.33502 36.288688,0.33502 L37.4428821,0.33502 C37.5143188,0.33502 37.5724488,0.39312 37.5724488,0.46382 L37.5724488,3.67542 C37.5724488,3.74752 37.6298783,3.80422 37.7006147,3.80422 L41.6345395,3.80422 C41.7059763,3.80422 41.7641062,3.86302 41.7641062,3.93372 L41.7641062,5.17272 C41.7641062,5.24342 41.7059763,5.30082 41.6345395,5.30082 L37.7020154,5.30082 C37.6305787,5.30082 37.5724488,5.35892 37.5724488,5.43032 C37.5843549,13.02112 38.0199791,20.59932 38.1915674,28.18732 C38.3911702,37.08642 38.1320368,45.99462 37.3504345,54.86222 C37.3504345,54.86222 37.3511348,55.29972 36.865785,55.29972" id="Fill-58"></path>
                    <path d="M43.4098133,9.66812 C42.5126515,13.61332 41.6154897,17.68662 41.5930782,21.74732 C41.5650638,26.83072 42.9496765,31.23512 45.3834291,35.67522 C45.3897324,35.68572 45.3960356,35.69692 45.4016385,35.70812 L53.6035601,53.10802 C53.7338271,53.38242 53.626672,53.70932 53.3570332,53.85352 C53.0887951,53.99842 52.7554235,53.91022 52.5943406,53.65402 L42.4923411,37.58762 C42.4909403,37.58552 42.4895396,37.58412 42.4881389,37.58272 C40.8787105,35.28392 39.7686392,32.77932 39.2041486,30.03462 C37.7999258,23.20612 39.9962563,15.74762 42.3067455,9.34892 C42.4082978,9.06472 42.7150557,8.90862 43.0064056,8.99122 C43.2998567,9.07452 43.4777483,9.37342 43.4098133,9.66812" id="Fill-60"></path>
                    <path d="M22.2061196,12.1212 C22.0821558,11.8545 22.1788056,11.5402 22.4323361,11.3897 C22.6837655,11.2385 23.0080324,11.3008 23.1866243,11.5346 C29.7328937,20.1089 30.9893404,28.4186 21.4343224,35.2912 C19.4866199,36.6926 17.4877911,38.0289 15.4735543,39.3337 C13.2765235,40.754 11.0549801,42.1372 8.82223085,43.4994 C6.37727242,44.9904 3.91550533,46.4569 1.44673464,47.9129 C1.1833991,48.069 0.840922828,47.9892 0.672836313,47.7351 C0.504049437,47.4796 0.56638152,47.1387 0.81500949,46.9595 L19.5888725,33.3669 C22.0604446,31.5756 24.4122551,29.3398 25.2729982,26.3263 C25.853597,24.2949 25.6848101,22.1942 25.2127672,20.1586 C24.5789409,17.423 23.3911296,14.6622 22.2061196,12.1212" id="Fill-62"></path>
                    <path d="M25.721579,10.61697 C25.6298318,10.33417 25.7727054,10.03037 26.0500481,9.91697 C26.3245894,9.80497 26.640452,9.92187 26.7735205,10.18507 C28.3143135,13.27137 29.7822691,16.56837 30.6332071,19.91647 C31.3314665,22.67447 31.6116107,25.53117 30.9812863,28.32977 C30.1870775,31.84727 28.0951007,34.64447 25.402915,36.98387 C22.8837184,39.17417 20.3400091,41.33577 17.7535779,43.44697 C15.6272835,45.18297 13.473675,46.88047 11.2948535,48.55137 C10.1371577,49.44037 8.97105746,50.32307 7.8042569,51.20227 C7.56473361,51.38287 7.22435842,51.34997 7.02895785,51.12247 C6.83425763,50.89497 6.85386773,50.55827 7.06677731,50.34967 L23.5791763,34.29097 C25.5639979,32.36037 27.4339604,30.16937 28.256884,27.48207 C28.9390351,25.24837 28.824176,22.91387 28.4417792,20.63747 C28.1882487,19.12617 27.8170576,17.62677 27.4094478,16.15047 C26.8960836,14.29197 26.3161851,12.44957 25.721579,10.61697" id="Fill-64"></path>
                    <path d="M30.4237293,9.66812 C30.3557943,9.37342 30.5343862,9.07452 30.8264365,8.99122 C31.1170861,8.90862 31.4252448,9.06472 31.526797,9.34892 C33.8365859,15.74762 36.0329164,23.20612 34.629394,30.03462 C34.0649034,32.77932 32.9541317,35.28392 31.3447033,37.58272 C31.3433026,37.58412 31.3426022,37.58552 31.3412015,37.58762 L21.2392019,53.65402 C21.0767183,53.91022 20.7426464,53.99842 20.475809,53.85352 C20.207571,53.70932 20.0997154,53.38242 20.2285818,53.10802 L28.4319041,35.70812 C28.4368066,35.69692 28.4424095,35.68572 28.4494131,35.67522 C30.8838661,31.23512 32.2670781,26.83072 32.2390636,21.74732 C32.2166521,17.68662 31.3201907,13.61332 30.4237293,9.66812" id="Fill-66"></path>
                    <path d="M51.6267226,12.1212 C50.4417126,14.6622 49.2539013,17.423 48.620075,20.1586 C48.1487324,22.1942 47.9792452,24.2949 48.5605444,26.3263 C49.4212874,29.3398 51.7716972,31.5756 54.2439697,33.3669 L73.0185331,46.9595 C73.2664607,47.1387 73.3294931,47.4796 73.1600059,47.7351 C72.9926197,47.9892 72.6487427,48.069 72.3861076,47.9129 C69.9173369,46.4569 67.4569705,44.9904 65.0113117,43.4994 C62.7771618,42.1372 60.554918,40.754 58.3599882,39.3337 C56.3443508,38.0289 54.3469227,36.6926 52.3992202,35.2912 C42.8435018,28.4186 44.0992481,20.1089 50.6462179,11.5346 C50.8241095,11.3008 51.1483764,11.2385 51.4012065,11.3897 C51.6540366,11.5402 51.7513867,11.8545 51.6267226,12.1212" id="Fill-68"></path>
                    <path d="M48.1111931,10.61697 C47.5165871,12.44957 46.9359882,14.29197 46.4233244,16.15047 C46.0150142,17.62677 45.6452239,19.12617 45.390993,20.63747 C45.0078958,22.91387 44.8937371,25.24837 45.5758882,27.48207 C46.3988117,30.16937 48.2687742,32.36037 50.2535958,34.29097 L66.7666952,50.34967 C66.9796048,50.55827 66.9985145,50.89497 66.803114,51.12247 C66.6077134,51.34997 66.2673382,51.38287 66.0292156,51.20227 C64.8624151,50.32307 63.6963149,49.44037 62.5379186,48.55137 C60.3590972,46.88047 58.2047883,45.18297 56.0791943,43.44697 C53.4934634,41.33577 50.9497541,39.17417 48.4305575,36.98387 C45.7369711,34.64447 43.6456947,31.84727 42.8528866,28.32977 C42.2204611,25.53117 42.5006053,22.67447 43.2002654,19.91647 C44.0498027,16.56837 45.5184586,13.27137 47.059952,10.18507 C47.1923202,9.92187 47.5088831,9.80497 47.7834244,9.91697 C48.0593664,10.03037 48.2036407,10.33417 48.1111931,10.61697" id="Fill-70"></path>
                </g>
            </g>
        </g>
    </g>
</svg>